# AST/ASF file generated using VICON BodyLanguage
# -----------------------------------------------
:version 1.10
:name VICON
:units
  mass 1.0
  length 0.45
  angle deg
:documentation
   .ast/.asf automatically generated from VICON data using
   VICON BodyBuilder and BodyLanguage model FoxedUp or BRILLIANT.MOD
:root
   order TX TY TZ RX RY RZ
   axis XYZ
   position 0 0 0  
   orientation 0 0 0 
:bonedata
  begin
     id 1 
     name lhipjoint
     direction 0.635376 -0.686425 0.353719 
     length 2.47244 
     axis 0 0 0  XYZ
  end
  begin
     id 2 
     name lfemur
     direction 0.34202 -0.939693 0  
     length 7.25268  
     axis 0 0 20  XYZ
    dof rx ry rz
    limits (-160.0 20.0)
           (-70.0 70.0)
           (-60.0 70.0)
  end
  begin
     id 3 
     name ltibia
     direction 0.34202 -0.939693 0   
     length 7.6767   
     axis 0 0 20   XYZ
    dof rx
    limits (-10.0 170.0)
  end
  begin
     id 4 
     name lfoot
     direction 0.0803374 -0.220725 0.972022   
     length 2.22945   
     axis -90 7.62852e-016 20   XYZ
    dof rx rz
    limits (-45.0 90.0)
           (-70.0 20.0)
  end
  begin
     id 5 
     name ltoes
     direction 1.53579e-011 -4.21994e-011 1   
     length 1.11848   
     axis -90 7.62852e-016 20   XYZ
    dof rx
    limits (-90.0 20.0)
  end
  begin
     id 6 
     name rhipjoint
     direction -0.664428 -0.664335 0.342336   
     length 2.55466  
     axis 0 0 0  XYZ 
  end
  begin
     id 7 
     name rfemur
     direction -0.34202 -0.939693 0   
     length 6.83172   
     axis 0 0 -20   XYZ
    dof rx ry rz
    limits (-160.0 20.0)
           (-70.0 70.0)
           (-70.0 60.0)
  end
  begin
     id 8 
     name rtibia
     direction -0.34202 -0.939693 0   
     length 7.62692   
     axis 0 0 -20   XYZ
    dof rx
    limits (-10.0 170.0)
 end
 begin
     id 9 
     name rfoot
     direction -0.0949276 -0.260811 0.960711   
     length 2.19684  
     axis -90 -7.62852e-016 -20   XYZ
    dof rx rz
    limits (-45.0 90.0)
           (-20.0 70.0)
  end
  begin
     id 10 
     name rtoes
     direction -1.53543e-011 -4.2183e-011 1   
     length 1.09848   
     axis -90 -7.62852e-016 -20   XYZ
    dof rx
    limits (-90.0 20.0)
  end
  begin
     id 11 
     name lowerback
     direction 0.0118782 0.999815 -0.0151555   
     length 2.15772   
     axis 0 0 0   XYZ
    dof rx ry rz
    limits (-20.0 45.0)
           (-30.0 30.0)
           (-30.0 30.0)
  end
  begin
     id 12 
     name upperback
     direction 0.00130825 0.999065 0.0432113   
     length 2.14863   
     axis 0 0 0   XYZ
    dof rx ry rz
    limits (-20.0 45.0)
           (-30.0 30.0)
           (-30.0 30.0)
  end
  begin
     id 13 
     name thorax
     direction -0.00347005 0.998773 0.0494011   
     length 2.14936   
     axis 0 0 0   XYZ
    dof rx ry rz
    limits (-20.0 45.0)
           (-30.0 30.0)
           (-30.0 30.0)
  end
  begin
     id 14 
     name lowerneck
     direction -0.0262159 0.99424 0.103921   
     length 1.69373   
     axis 0 0 0   XYZ
    dof rx ry rz
    limits (-20.0 45.0)
           (-30.0 30.0)
           (-30.0 30.0)
  end
  begin
     id 15 
     name upperneck
     direction 0.0353511 0.977394 -0.20845   
     length 1.70857   
     axis 0 0 0   XYZ
    dof rx ry rz
    limits (-20.0 45.0)
           (-30.0 30.0)
           (-30.0 30.0)
  end
  begin
     id 16
     name head
     direction 0.0139214 0.996594 -0.0812836  
     length 1.72777  
     axis 0 0 0   XYZ
    dof rx ry rz
    limits (-20.0 45.0)
           (-30.0 30.0)
           (-30.0 30.0)
  end
  begin
     id 17 
     name lclavicle
     direction 0.841247 0.537205 -0.0609508  
     length 3.55371  
     axis 0 0 0   XYZ
    dof ry rz
    limits (-20.0 10.0)
           (0.0 20.0)
  end
  begin
     id 18 
     name lhumerus
     direction 1 -4.48964e-011 1.60116e-018   
     length 4.91377   
     axis -180 -30 -90   XYZ
    dof rx ry rz
    limits (-60.0 90.0)
           (-90.0 90.0)
           (-90.0 90.0)
  end
  begin
     id 19
     name lradius
     direction 1 -4.48989e-011 -8.93847e-027   
     length 3.00291   
     axis -180 -30 -90   XYZ
    dof rx
    limits (-10.0 170.0)
  end
  begin
     id 20
     name lwrist
     direction 1 -4.48932e-011 -7.31504e-027   
     length 1.50145   
     axis 5.74121e-015 90 90   XYZ
    dof ry
    limits (-180.0 0.0)
 end
  begin
     id 21 
     name lhand
     direction 1 -4.48971e-011 -1.46301e-026   
     length 0.450922   
     axis 9.33524e-015 90 90   XYZ
    dof rx rz
    limits (-90.0 90.0)
           (-45.0 45.0)
  end
  begin
     id 22 
     name lfingers
     direction 1 -4.49039e-011 -2.92602e-026   
     length 0.363545   
     axis 1.86705e-014 90 90   XYZ
    dof rx
    limits (0.0 90.0)
  end
  begin
     id 23
     name lthumb
     direction 0.707107 -6.34941e-011 0.707107   
     length 0.52198   
     axis -90 45 2.85299e-015   XYZ
    dof rx rz
    limits (-45.0 45.0)
           (-45.0 45.0)
  end
  begin
     id 24 
     name rclavicle
     direction -0.825079 0.56158 -0.0622297   
     length 3.39909  
     axis 0 0 0   XYZ 
    dof ry rz
    limits (-10.0 20.0)
           (-20.0 0.0)
  end
  begin
     id 25 
     name rhumerus
     direction -1 -4.48965e-011 1.61691e-027  
     length 4.86725   
     axis -180 30 90   XYZ
    dof rx ry rz
    limits (-90.0 60.0)
           (-90.0 90.0)
           (-90.0 90.0)
  end
  begin
     id 26 
     name rradius
     direction -1 -4.48964e-011 -2.25776e-027   
     length 3.17144   
     axis -180 30 90   XYZ
    dof rx
    limits (-10.0 170.0)
  end
  begin
     id 27 
     name rwrist
     direction -1 -4.48961e-011 -7.31504e-027   
     length 1.58572   
     axis 5.74121e-015 -90 -90   XYZ
    dof ry
    limits (-180.0 0.0)
  end
  begin
     id 28
     name rhand
     direction -1 -4.49013e-011 -1.46301e-026   
     length 0.419368   
     axis 9.33524e-015 -90 -90   XYZ
    dof rx rz
    limits (-90.0 90.0)
           (-45.0 45.0)
  end
  begin
     id 29
     name rfingers
     direction -1 -4.489e-011 -2.92602e-026   
     length 0.338105   
     axis 1.86705e-014 -90 -90   XYZ
    dof rx
    limits (0.0 90.0)
  end
  begin
     id 30
     name rthumb
     direction -0.707107 -6.35022e-011 0.707107   
     length 0.485453   
     axis -90 -45 -2.85299e-015   XYZ
    dof rx rz
    limits (-45.0 45.0)
           (-45.0 45.0)
  end
:hierarchy
  begin
    root lhipjoint rhipjoint lowerback
    lhipjoint lfemur
    lfemur ltibia
    ltibia lfoot
    lfoot ltoes
    rhipjoint rfemur
    rfemur rtibia
    rtibia rfoot
    rfoot rtoes
    lowerback upperback
    upperback thorax
    thorax lowerneck lclavicle rclavicle
    lowerneck upperneck
    upperneck head
    lclavicle lhumerus
    lhumerus lradius
    lradius lwrist
    lwrist lhand lthumb
    lhand lfingers
    rclavicle rhumerus
    rhumerus rradius
    rradius rwrist
    rwrist rhand rthumb
    rhand rfingers
  end

#!OML:ASF H:\Swim 2\Project 1\Capture day 1\Session 1\male.ASF
:FULLY-SPECIFIED
:DEGREES
458
root 7.32186 9.84672 12.045 96.0682 -0.849641 6.98831
lowerback -0.719937 4.52815 4.08714
upperback -5.37637 6.27911 -0.0755978
thorax -4.72644 3.00453 -2.54388
lowerneck -15.248 0.536613 5.79955
upperneck 22.1 0.831106 -6.40285
head 9.53671 0.176512 -3.09602
rclavicle -9.85972e-014 -3.53837e-014
rhumerus 79.7107 -32.693 -25.8167
rradius 23.0321
rwrist 34.2751
rhand -32.5965 4.15565
rfingers 7.12502
rthumb -5.82462 -25.7443
lclavicle -9.85972e-014 -3.53837e-014
lhumerus -30.7009 -6.34912 1.49859
lradius 16.6482
lwrist 2.15597
lhand -32.7302 -9.11149
lfingers 7.12502
lthumb -5.95378 20.7849
rfemur -32.2499 7.19133 17.6486
rtibia 25.8393
rfoot 36.8088 -1.32387
rtoes 24.9157
lfemur -28.4232 -6.13075 -23.0551
ltibia 36.474
lfoot 11.2313 5.85771
ltoes 19.6502
459
root 7.32717 9.85356 12.0634 96.0142 -0.944963 7.0754
lowerback -0.615477 4.3296 4.1367
upperback -5.36198 6.01691 0.01727
thorax -4.79364 2.86924 -2.47938
lowerneck -15.0932 0.620834 5.45509
upperneck 21.5995 1.02358 -6.41575
head 9.34514 0.234589 -3.00589
rclavicle -7.63333e-014 2.78299e-015
rhumerus 80.1307 -33.009 -26.8834
rradius 22.8417
rwrist 34.4584
rhand -32.7411 4.0897
rfingers 7.12502
rthumb -5.96423 -25.8064
lclavicle -7.63333e-014 2.78299e-015
lhumerus -28.8749 -4.65391 -0.763242
lradius 16.9991
lwrist 2.04888
lhand -32.8045 -8.15658
lfingers 7.12502
lthumb -6.02547 21.7377
rfemur -32.7105 7.7122 17.0843
rtibia 24.8779
rfoot 36.5579 -1.96217
rtoes 24.7271
lfemur -27.8088 -5.76005 -23.3072
ltibia 37.2377
lfoot 12.4557 5.24474
ltoes 21.4731
460
root 7.33291 9.86085 12.0804 95.9315 -1.02972 7.17115
lowerback -0.492681 4.13586 4.18713
upperback -5.33243 5.76134 0.10392
thorax -4.85379 2.73742 -2.4216
lowerneck -14.9765 0.689599 5.08449
upperneck 21.1519 1.19353 -6.40449
head 9.17802 0.284491 -2.90816
rclavicle -1.59028e-014 -1.05356e-014
rhumerus 80.5035 -33.3392 -27.9527
rradius 22.668
rwrist 34.6592
rhand -32.8227 4.0441
rfingers 7.12502
rthumb -6.04308 -25.8497
lclavicle -1.59028e-014 -1.05356e-014
lhumerus -27.0621 -2.78298 -2.91241
lradius 17.4432
lwrist 1.88587
lhand -32.847 -7.18805
lfingers 7.12502
lthumb -6.06653 22.7051
rfemur -33.0518 8.10908 16.6006
rtibia 23.9565
rfoot 36.2725 -2.64998
rtoes 24.551
lfemur -27.2644 -5.42077 -23.5262
ltibia 38.0867
lfoot 14.0272 4.58819
ltoes 24.3678
461
root 7.33923 9.86847 12.096 95.8287 -1.10398 7.28634
lowerback -0.35822 3.94306 4.23942
upperback -5.29415 5.50724 0.183394
thorax -4.91017 2.60632 -2.3717
lowerneck -14.8929 0.748633 4.70298
upperneck 20.7442 1.35144 -6.39468
head 9.03041 0.329202 -2.81249
rclavicle 5.08889e-014 -3.97569e-015
rhumerus 80.7684 -33.684 -28.9299
rradius 22.5237
rwrist 34.8753
rhand -32.8659 4.0371
rfingers 7.12502
rthumb -6.08473 -25.8555
lclavicle 5.08889e-014 -3.97569e-015
lhumerus -25.2598 -0.53101 -4.98976
lradius 17.9909
lwrist 1.71581
lhand -32.8461 -6.26703
lfingers 7.12502
lthumb -6.06564 23.6261
rfemur -33.2775 8.35534 16.2205
rtibia 23.1005
rfoot 35.9506 -3.38341
rtoes 24.4307
lfemur -26.8105 -5.12944 -23.7111
ltibia 39.0119
lfoot 14.9798 3.93653
ltoes 25.0831
462
root 7.34607 9.87632 12.1098 95.7415 -1.16745 7.43516
lowerback -0.246021 3.74794 4.29475
upperback -5.25996 5.24899 0.251192
thorax -4.95701 2.47318 -2.33275
lowerneck -14.8396 0.797702 4.3149
upperneck 20.3728 1.4951 -6.3803
head 8.9001 0.368404 -2.71748
rclavicle 1.59028e-014 -5.76476e-015
rhumerus 80.9776 -34.0261 -29.9205
rradius 22.3995
rwrist 35.2277
rhand -32.8594 4.10794
rfingers 7.12502
rthumb -6.07844 -25.7849
lclavicle 1.59028e-014 -5.76476e-015
lhumerus -23.4761 2.13453 -6.94896
lradius 18.6679
lwrist 1.77061
lhand -32.7556 -5.5076
lfingers 7.12502
lthumb -5.97826 24.3881
rfemur -33.4231 8.41734 15.9616
rtibia 22.3296
rfoot 35.6006 -4.1308
rtoes 24.3714
lfemur -26.4937 -4.90304 -23.8584
ltibia 39.9923
lfoot 16.0293 3.29895
ltoes 25.956
